<svg width="26" height="21" viewBox="0 0 26 21" fill="none" xmlns="http://www.w3.org/2000/svg">
<path fill-rule="evenodd" clip-rule="evenodd" d="M14.3971 0.306965C14.7799 -0.0911784 15.4129 -0.103655 15.811 0.279098L25.693 9.7791C25.8892 9.96764 26 10.2279 26 10.5C26 10.7721 25.8892 11.0324 25.693 11.2209L15.811 20.7209C15.4129 21.1037 14.7799 21.0912 14.3971 20.693C14.0143 20.2949 14.0268 19.6619 14.425 19.2791L22.5169 11.5H1C0.447715 11.5 0 11.0523 0 10.5C0 9.94772 0.447715 9.5 1 9.5H22.5169L14.425 1.7209C14.0268 1.33815 14.0143 0.705109 14.3971 0.306965Z" fill="white"/>
</svg>
