<svg width="25" height="24" viewBox="0 0 25 24" fill="none" xmlns="http://www.w3.org/2000/svg">
<path fill-rule="evenodd" clip-rule="evenodd" d="M1.5 12C1.5 5.92472 6.42472 1 12.5 1C18.5753 1 23.5 5.92472 23.5 12C23.5 18.0753 18.5753 23 12.5 23C6.42472 23 1.5 18.0753 1.5 12ZM12.5 3C7.52928 3 3.5 7.02928 3.5 12C3.5 16.9707 7.52928 21 12.5 21C17.4707 21 21.5 16.9707 21.5 12C21.5 7.02928 17.4707 3 12.5 3Z" fill="white"/>
<path fill-rule="evenodd" clip-rule="evenodd" d="M12.5 6.5C13.0523 6.5 13.5 6.94772 13.5 7.5V16.5C13.5 17.0523 13.0523 17.5 12.5 17.5C11.9477 17.5 11.5 17.0523 11.5 16.5V7.5C11.5 6.94772 11.9477 6.5 12.5 6.5Z" fill="white"/>
<path fill-rule="evenodd" clip-rule="evenodd" d="M7.29289 11.2929C7.68342 10.9024 8.31658 10.9024 8.70711 11.2929L12.5 15.0858L16.2929 11.2929C16.6834 10.9024 17.3166 10.9024 17.7071 11.2929C18.0976 11.6834 18.0976 12.3166 17.7071 12.7071L13.2071 17.2071C12.8166 17.5976 12.1834 17.5976 11.7929 17.2071L7.29289 12.7071C6.90237 12.3166 6.90237 11.6834 7.29289 11.2929Z" fill="white"/>
</svg>
