<svg width="19" height="19" viewBox="0 0 19 19" fill="none" xmlns="http://www.w3.org/2000/svg">
<g clip-path="url(#clip0_414_48)">
<path fill-rule="evenodd" clip-rule="evenodd" d="M0.292893 0.292893C0.683417 -0.0976311 1.31658 -0.0976311 1.70711 0.292893L9.5 8.08579L17.2929 0.292893C17.6834 -0.0976311 18.3166 -0.0976311 18.7071 0.292893C19.0976 0.683417 19.0976 1.31658 18.7071 1.70711L10.9142 9.5L18.7071 17.2929C19.0976 17.6834 19.0976 18.3166 18.7071 18.7071C18.3166 19.0976 17.6834 19.0976 17.2929 18.7071L9.5 10.9142L1.70711 18.7071C1.31658 19.0976 0.683417 19.0976 0.292893 18.7071C-0.0976311 18.3166 -0.0976311 17.6834 0.292893 17.2929L8.08579 9.5L0.292893 1.70711C-0.0976311 1.31658 -0.0976311 0.683417 0.292893 0.292893Z" fill="white"/>
</g>
<defs>
<clipPath id="clip0_414_48">
<rect width="19" height="19" fill="white"/>
</clipPath>
</defs>
</svg>
