<svg width="12" height="12" viewBox="0 0 12 12" fill="none" xmlns="http://www.w3.org/2000/svg">
<path fill-rule="evenodd" clip-rule="evenodd" d="M3.5 3C3.5 1.61929 4.61929 0.5 6 0.5C7.38071 0.5 8.5 1.61929 8.5 3C8.5 4.38071 7.38071 5.5 6 5.5C4.61929 5.5 3.5 4.38071 3.5 3ZM6 1.5C5.17157 1.5 4.5 2.17157 4.5 3C4.5 3.82843 5.17157 4.5 6 4.5C6.82843 4.5 7.5 3.82843 7.5 3C7.5 2.17157 6.82843 1.5 6 1.5Z" fill="black" fill-opacity="0.5"/>
<path fill-rule="evenodd" clip-rule="evenodd" d="M1 11C1 8.23861 3.23861 6 6 6C8.76139 6 11 8.23861 11 11C11 11.2761 10.7761 11.5 10.5 11.5C10.2239 11.5 10 11.2761 10 11C10 8.79089 8.20911 7 6 7C3.79089 7 2 8.79089 2 11C2 11.2761 1.77614 11.5 1.5 11.5C1.22386 11.5 1 11.2761 1 11Z" fill="black" fill-opacity="0.5"/>
</svg>
