<?xml version="1.0" standalone="no"?>
<!DOCTYPE svg PUBLIC "-//W3C//DTD SVG 20010904//EN"
 "http://www.w3.org/TR/2001/REC-SVG-20010904/DTD/svg10.dtd">
<svg version="1.0" xmlns="http://www.w3.org/2000/svg"
 width="977.000000pt" height="977.000000pt" viewBox="0 0 977.000000 977.000000"
 preserveAspectRatio="xMidYMid meet">
<metadata>
Created by potrace 1.14, written by Peter Selinger 2001-2017
</metadata>
<g transform="translate(0.000000,977.000000) scale(0.100000,-0.100000)"
fill="#000000" stroke="none">
<path d="M7006 9063 c-1 -1 -37 -5 -81 -8 -44 -3 -105 -8 -135 -11 -67 -6
-110 -9 -220 -18 -47 -4 -105 -9 -130 -12 -83 -8 -135 -13 -200 -18 -36 -3
-96 -8 -135 -12 -38 -3 -90 -7 -115 -9 -25 -2 -67 -6 -95 -9 -65 -8 -181 -17
-365 -31 -30 -2 -55 -5 -55 -6 0 0 -16 -2 -35 -4 -40 -2 -166 -13 -255 -21
-60 -5 -94 -8 -195 -18 -30 -3 -82 -8 -115 -10 -33 -3 -89 -8 -124 -11 -35 -3
-91 -8 -125 -11 -139 -11 -183 -14 -361 -30 -77 -7 -127 -12 -195 -18 -30 -3
-86 -8 -125 -11 -38 -3 -90 -7 -115 -10 -85 -8 -185 -17 -230 -20 -25 -1 -70
-5 -100 -9 -30 -3 -91 -8 -135 -11 -44 -3 -96 -8 -115 -11 -20 -2 -62 -6 -95
-9 -118 -8 -388 -33 -430 -39 -11 -1 -27 1 -36 5 -12 6 -36 -22 -110 -127 -52
-74 -98 -143 -104 -152 -5 -9 -13 -19 -16 -22 -3 -3 -24 -32 -47 -65 -22 -33
-68 -98 -101 -145 -33 -47 -94 -134 -136 -195 -42 -60 -91 -130 -108 -155 -18
-25 -111 -157 -207 -294 -96 -137 -201 -286 -233 -330 -31 -45 -60 -88 -64
-96 -4 -8 -10 -17 -13 -20 -4 -3 -33 -43 -66 -90 -32 -47 -88 -128 -125 -180
-37 -52 -82 -115 -99 -140 -17 -25 -124 -175 -236 -335 -112 -159 -207 -297
-211 -305 -4 -8 -9 -17 -13 -20 -7 -6 -530 -752 -545 -778 -5 -9 -12 -19 -15
-22 -19 -19 -130 -181 -130 -190 0 -6 46 -91 102 -188 56 -97 159 -276 229
-397 154 -268 376 -652 554 -960 73 -126 142 -246 153 -265 10 -19 100 -174
199 -345 99 -170 242 -418 318 -550 76 -132 153 -265 171 -295 31 -52 341
-590 390 -676 12 -22 77 -134 143 -249 67 -114 121 -212 121 -216 0 -5 5 -9
10 -9 6 0 10 -4 10 -9 0 -5 23 -49 52 -98 28 -48 56 -98 62 -111 10 -21 15
-22 96 -17 139 8 295 19 450 30 36 3 99 7 140 10 88 5 232 15 310 20 30 3 96
7 145 10 50 3 122 8 160 11 39 3 97 7 130 9 33 3 96 7 140 10 44 3 109 8 145
10 36 2 106 7 155 10 209 15 364 25 445 30 41 2 104 7 140 10 36 3 99 8 140
10 41 3 104 7 140 9 36 3 110 7 165 11 55 3 127 8 160 11 33 2 85 6 115 8 30
3 96 7 145 11 50 4 122 8 160 10 39 1 70 4 70 5 0 1 32 3 70 5 39 2 104 6 145
9 128 9 263 18 320 22 30 1 55 3 55 4 0 1 34 3 75 5 41 3 102 7 135 9 33 3 80
6 105 7 l45 1 70 104 c39 58 75 113 80 122 6 9 12 19 15 22 11 11 50 70 50 75
0 3 8 15 18 26 11 10 25 32 33 47 8 15 19 32 24 38 6 6 44 62 85 125 41 63 77
116 80 119 3 3 150 221 327 485 176 264 391 584 477 710 86 127 159 237 163
245 4 8 9 17 12 20 3 3 36 50 73 105 180 271 388 581 395 590 5 6 23 33 41 60
18 28 39 59 46 70 19 26 222 327 393 583 l136 203 -28 52 c-16 29 -31 54 -34
57 -3 3 -15 23 -27 45 -12 22 -72 128 -134 235 -62 107 -121 209 -130 225 -10
17 -35 59 -55 95 -21 36 -46 79 -55 95 -37 69 -75 130 -82 133 -4 2 -8 8 -8
13 0 9 -168 305 -208 369 -9 14 -17 27 -17 30 0 3 -8 16 -16 30 -9 14 -29 48
-44 75 -16 28 -33 53 -39 57 -6 4 -7 8 -3 8 5 0 -1 13 -12 29 -12 16 -21 32
-21 35 0 10 -63 111 -74 118 -6 4 -8 8 -4 8 4 0 -9 28 -30 63 -21 34 -41 69
-45 77 -4 8 -18 33 -32 55 -13 22 -36 63 -51 90 -15 28 -31 52 -35 53 -5 2 -7
8 -3 13 3 5 0 9 -5 9 -6 0 -11 4 -11 9 0 8 -170 308 -210 371 -5 8 -19 34 -31
58 -13 23 -26 42 -31 42 -4 0 -7 3 -6 8 2 4 -8 25 -21 47 -14 22 -33 56 -44
75 -21 38 -46 82 -62 108 -6 9 -28 49 -50 87 -21 39 -42 72 -45 75 -3 3 -12
20 -19 38 -8 17 -17 32 -22 32 -5 0 -9 5 -9 11 0 6 -9 24 -21 40 -11 16 -18
29 -15 29 3 0 -6 16 -19 36 -13 19 -27 44 -30 55 -4 10 -11 19 -16 19 -5 0 -9
6 -9 14 0 8 -6 21 -13 28 -7 7 -15 18 -17 23 -9 30 -24 55 -33 55 -6 0 -8 3
-4 6 3 3 -18 45 -47 92 -29 48 -55 94 -59 102 -4 8 -18 33 -32 55 -14 22 -28
48 -31 58 -4 9 -11 17 -16 17 -5 0 -7 4 -4 8 3 5 -2 18 -12 29 -9 10 -32 48
-51 84 -19 35 -37 66 -40 69 -3 3 -22 35 -41 72 -19 37 -38 68 -42 68 -5 0 -8
4 -8 9 0 5 -22 48 -50 96 -27 48 -50 91 -50 96 0 5 -4 9 -10 9 -5 0 -10 4 -10
9 0 6 -21 46 -47 90 l-47 80 -54 -2 c-29 -1 -54 -3 -56 -4z m-10 -789 c66
-113 133 -229 149 -258 17 -28 57 -99 90 -156 33 -58 63 -106 67 -108 4 -2 8
-8 8 -13 0 -5 117 -211 260 -459 143 -247 268 -464 279 -482 41 -73 283 -492
356 -618 43 -74 96 -166 118 -205 22 -38 44 -71 48 -73 5 -2 9 -11 9 -21 0 -9
4 -21 9 -26 8 -8 154 -258 244 -415 10 -19 104 -181 207 -360 103 -179 198
-343 210 -365 12 -22 27 -46 32 -53 8 -9 3 -19 -16 -37 -14 -13 -26 -28 -26
-34 0 -5 -6 -16 -13 -23 -7 -7 -143 -209 -302 -448 -160 -239 -292 -437 -295
-440 -3 -3 -27 -39 -54 -80 -27 -41 -53 -76 -58 -78 -4 -2 -8 -10 -8 -17 0 -7
-3 -15 -7 -17 -5 -1 -133 -190 -285 -418 -308 -462 -470 -702 -478 -710 -5 -5
-166 -247 -253 -380 -20 -30 -80 -120 -134 -200 -54 -80 -136 -201 -182 -270
-47 -69 -85 -126 -86 -128 -4 -5 -42 -10 -140 -17 -55 -3 -125 -8 -155 -10
-30 -2 -98 -7 -150 -10 -52 -3 -122 -8 -155 -11 -33 -3 -91 -7 -130 -9 -69 -3
-167 -10 -295 -20 -36 -3 -108 -8 -160 -11 -52 -3 -115 -7 -140 -9 -25 -2 -88
-6 -140 -9 -52 -4 -122 -9 -155 -11 -33 -3 -103 -8 -155 -11 -104 -6 -137 -9
-250 -18 -41 -3 -120 -8 -175 -11 -55 -3 -122 -8 -150 -10 -27 -2 -90 -6 -140
-9 -120 -8 -203 -14 -305 -22 -47 -3 -110 -8 -140 -10 -152 -9 -241 -15 -295
-19 -33 -3 -100 -8 -150 -10 -49 -3 -121 -7 -160 -10 -38 -3 -101 -8 -140 -10
-38 -2 -109 -7 -156 -10 -64 -4 -89 -2 -96 7 -6 7 -50 81 -97 163 -48 83 -91
157 -96 165 -16 26 -84 143 -100 171 -8 15 -80 140 -160 279 -80 138 -151 263
-159 278 -8 15 -18 29 -23 30 -4 2 -8 8 -8 13 0 8 -70 135 -110 199 -5 8 -28
49 -51 90 -23 41 -45 77 -48 80 -3 3 -15 23 -27 45 -11 22 -31 57 -42 78 -22
37 -49 84 -74 128 -7 13 -15 26 -18 29 -3 3 -14 23 -25 45 -11 22 -23 42 -26
45 -3 3 -16 25 -30 50 -13 25 -28 48 -34 52 -7 5 -7 8 0 8 7 0 7 3 0 8 -5 4
-16 18 -23 31 -8 13 -22 39 -33 57 -10 19 -29 51 -40 72 -27 47 -145 250 -210
360 -27 45 -49 87 -49 92 0 6 -5 10 -11 10 -5 0 -7 5 -4 10 3 5 1 10 -4 10 -6
0 -11 4 -11 9 0 5 -29 59 -65 120 -36 60 -65 114 -65 120 0 6 -4 11 -9 11 -5
0 -11 8 -14 18 -4 9 -18 37 -33 62 -15 25 -37 64 -50 87 -13 23 -53 92 -89
153 -36 61 -65 113 -65 115 0 3 -15 28 -33 57 -19 29 -45 73 -59 98 -14 25
-36 63 -48 85 -13 22 -33 56 -44 76 -12 20 -33 58 -48 84 -16 26 -28 51 -28
56 0 5 -4 9 -8 9 -11 0 -32 45 -32 66 0 13 34 69 73 119 4 5 44 62 88 125 44
63 351 501 682 974 331 472 627 894 657 937 312 448 414 595 420 599 3 3 75
104 159 225 132 189 157 220 180 221 28 1 184 13 241 19 19 2 76 7 125 11 95
7 113 9 185 18 60 7 159 16 245 22 39 2 88 6 110 9 80 9 211 19 257 19 27 1
48 3 48 6 0 3 12 5 28 6 15 1 71 4 124 8 l97 8 21 -39 c12 -21 38 -67 59 -103
326 -565 479 -829 546 -945 45 -77 84 -147 88 -155 4 -8 13 -24 19 -35 20 -30
45 -73 173 -295 168 -291 185 -320 212 -370 14 -25 30 -50 37 -57 8 -9 10 156
8 647 -2 567 0 660 12 660 8 0 16 -3 18 -8 2 -4 26 -25 53 -47 28 -22 52 -42
55 -45 3 -3 30 -25 60 -50 30 -25 60 -49 66 -55 6 -5 29 -24 50 -42 22 -17 84
-68 139 -113 55 -45 103 -87 107 -94 4 -6 8 -7 8 -2 0 6 6 3 13 -5 6 -9 37
-35 67 -59 30 -25 62 -53 71 -62 9 -10 20 -18 23 -18 4 0 13 -6 20 -13 19 -18
95 -82 198 -165 47 -39 97 -80 110 -90 13 -11 82 -68 153 -127 72 -59 149
-123 173 -144 24 -20 47 -37 52 -39 9 -3 -66 136 -79 148 -3 3 -16 23 -27 45
-12 22 -38 69 -59 105 -21 36 -48 83 -60 105 -13 22 -46 81 -75 130 -74 127
-91 155 -114 197 -109 191 -141 245 -154 261 -8 9 -11 17 -7 17 4 0 1 8 -7 18
-9 9 -27 37 -40 62 -26 46 -39 69 -100 175 -19 33 -54 94 -78 135 -23 41 -73
127 -110 190 -37 63 -78 135 -92 160 -14 25 -51 89 -83 143 -31 54 -55 100
-53 102 6 6 58 13 138 20 41 3 95 8 120 10 25 3 77 7 115 10 39 3 97 8 130 11
33 4 76 8 95 9 117 9 205 17 207 19 1 1 31 3 66 4 l64 3 119 -207z"/>
<path d="M3718 7785 c-1 -2 -41 -6 -88 -10 -47 -3 -103 -8 -125 -10 -92 -8
-213 -18 -250 -19 -38 -1 -43 -5 -91 -74 -27 -40 -56 -80 -62 -90 -109 -152
-192 -275 -192 -281 0 -14 277 -491 282 -486 3 3 5 -1 5 -8 0 -7 17 -42 38
-77 21 -36 47 -81 58 -100 10 -19 87 -152 170 -295 82 -143 158 -274 167 -291
10 -16 53 -91 95 -165 266 -458 481 -830 503 -869 14 -25 56 -99 95 -165 38
-66 81 -140 95 -164 14 -25 55 -97 92 -160 65 -112 67 -116 51 -141 -44 -71
-434 -620 -439 -620 -9 1 -92 146 -92 160 0 5 -4 10 -9 10 -5 0 -11 8 -14 18
-6 17 -32 63 -88 155 -16 26 -29 50 -29 53 0 3 -15 28 -33 57 -18 29 -40 66
-49 82 -8 17 -39 71 -68 120 -29 50 -63 106 -74 127 -12 20 -42 73 -68 118
-27 46 -48 87 -48 91 0 5 -4 9 -9 9 -5 0 -11 8 -14 18 -4 9 -22 44 -41 77 -20
33 -47 80 -61 105 -14 25 -30 52 -35 60 -22 33 -100 171 -100 176 0 3 -13 25
-30 49 -16 24 -30 46 -30 49 0 3 -29 55 -65 115 -36 60 -65 114 -65 118 0 5
-5 14 -12 21 -12 12 -63 97 -93 157 -9 17 -24 44 -35 60 -10 17 -27 46 -37 65
-9 19 -19 37 -22 40 -4 3 -12 16 -20 30 -8 14 -36 63 -63 109 -26 46 -48 85
-48 86 0 2 -15 27 -33 57 l-33 55 -123 -176 c-161 -231 -159 -227 -144 -249
11 -15 35 -57 118 -202 66 -115 96 -167 105 -180 6 -8 17 -28 25 -45 9 -16 25
-46 36 -65 28 -46 167 -287 189 -325 9 -16 31 -53 48 -81 18 -28 32 -56 32
-62 0 -6 3 -12 8 -14 6 -3 15 -17 61 -103 9 -16 19 -32 23 -35 4 -3 12 -17 17
-30 6 -14 15 -32 21 -40 27 -41 90 -151 90 -156 0 -3 8 -18 19 -32 10 -15 31
-49 46 -77 34 -61 118 -207 147 -255 11 -19 31 -55 45 -80 13 -25 46 -81 73
-125 27 -44 49 -84 50 -88 0 -5 8 -21 19 -35 10 -15 28 -44 40 -64 24 -43 52
-93 80 -140 10 -18 27 -49 37 -68 11 -19 22 -37 25 -40 4 -3 16 -24 28 -48
l22 -43 -181 -257 c-100 -141 -202 -287 -228 -324 l-47 -66 -120 206 c-65 114
-200 347 -298 517 -99 171 -187 324 -196 340 -9 17 -19 32 -23 33 -5 2 -8 12
-8 22 0 10 -3 20 -8 22 -8 3 -82 125 -82 135 0 3 -8 17 -19 31 -10 15 -35 59
-56 97 -21 39 -43 77 -49 85 -6 8 -16 24 -22 35 -34 61 -331 576 -350 607 -13
21 -24 40 -24 42 0 3 -31 57 -70 122 -38 64 -70 119 -70 123 0 3 -4 12 -9 20
-8 12 -12 12 -25 -2 -9 -8 -16 -20 -16 -25 0 -6 -4 -12 -8 -14 -5 -1 -20 -19
-33 -40 -13 -20 -66 -96 -117 -169 -78 -111 -92 -136 -84 -153 5 -12 110 -194
232 -406 245 -423 243 -420 289 -502 18 -32 37 -58 43 -58 5 0 6 -5 3 -10 -3
-6 2 -22 13 -38 10 -15 99 -166 197 -337 98 -170 197 -341 220 -380 23 -38 55
-92 70 -120 15 -27 70 -124 123 -215 178 -309 192 -333 192 -340 0 -4 7 -13
15 -20 9 -7 12 -16 7 -19 -4 -3 -56 -74 -114 -157 l-106 -152 25 -43 c14 -24
36 -62 48 -84 13 -22 46 -78 73 -125 28 -47 65 -112 83 -145 17 -33 42 -77 55
-97 23 -36 25 -37 71 -32 27 3 82 7 123 9 41 3 111 7 155 10 44 3 109 7 144 9
45 3 69 9 81 23 10 10 96 135 191 278 96 143 176 262 179 265 3 3 81 120 174
260 94 140 175 258 180 262 6 4 7 8 3 8 -5 0 -2 6 5 13 7 7 42 58 78 113 36
54 68 101 73 102 4 2 7 8 7 13 0 5 23 40 50 79 28 39 50 74 50 79 0 5 3 11 8
13 4 2 97 137 207 301 449 669 445 664 465 664 15 0 151 10 265 18 130 9 350
24 455 30 36 2 65 4 65 5 0 0 32 3 70 5 39 2 102 6 140 9 89 7 228 16 325 22
41 2 102 6 135 8 86 7 221 16 285 21 30 2 96 7 145 10 50 3 117 7 150 10 33 2
105 7 160 11 55 3 116 7 135 9 19 1 82 5 140 9 58 4 126 9 152 11 26 2 94 7
150 10 129 7 170 12 179 22 4 5 59 87 122 183 64 96 120 180 124 185 5 6 19
27 32 48 12 20 27 37 32 37 6 0 2 12 -9 28 -10 15 -39 63 -64 107 -170 302
-224 389 -237 381 -3 -2 -44 -7 -91 -11 -47 -4 -103 -9 -125 -11 -76 -8 -150
-14 -225 -19 l-75 -5 -70 57 c-69 57 -93 77 -118 99 -7 6 -78 64 -157 129 -80
66 -147 122 -150 125 -3 3 -27 24 -55 45 -27 22 -52 42 -55 45 -5 5 -422 351
-529 439 -75 62 -94 77 -173 145 -42 36 -79 66 -82 66 -3 0 -23 16 -43 35 -38
36 -55 44 -48 23 2 -7 6 -309 8 -671 3 -482 2 -659 -7 -664 -6 -4 -22 -8 -36
-9 -14 0 -63 -4 -110 -9 -47 -4 -107 -9 -135 -11 -27 -2 -70 -6 -95 -8 -43 -5
-123 -11 -240 -21 -30 -2 -77 -6 -105 -9 -27 -3 -87 -8 -132 -12 l-83 -6 -10
28 c-6 16 -15 31 -19 34 -4 3 -22 32 -41 65 -39 70 -63 112 -89 158 -72 124
-253 437 -293 507 -27 47 -53 92 -58 100 -45 77 -98 168 -103 180 -4 8 -16 29
-26 45 -10 17 -80 138 -156 270 -181 315 -303 526 -315 545 -5 8 -28 49 -52
90 -23 41 -47 83 -53 92 -5 10 -57 99 -114 198 -57 99 -108 183 -112 186 -5 3
-9 14 -9 24 0 10 -4 20 -8 22 -7 3 -27 36 -79 128 -11 19 -43 75 -71 124 -28
49 -53 93 -54 98 -3 8 -43 19 -50 13z"/>
<path d="M7327 3453 c-1 -1 -43 -4 -92 -7 -50 -4 -119 -8 -155 -11 -36 -3
-103 -7 -150 -10 -47 -3 -112 -8 -145 -10 -33 -2 -100 -7 -150 -10 -49 -3
-112 -8 -140 -10 -27 -2 -99 -7 -160 -11 -60 -4 -126 -8 -145 -9 -19 -2 -84
-6 -145 -10 -60 -4 -123 -8 -140 -10 -16 -2 -46 -4 -65 -4 -31 -1 -38 -7 -65
-53 -16 -28 -34 -56 -40 -62 -16 -18 -195 -284 -195 -291 0 -3 20 -3 45 -1 24
3 93 8 152 12 59 3 128 8 153 9 63 5 191 14 280 20 41 2 116 7 165 11 93 6
113 8 275 18 112 7 223 15 300 22 30 2 100 6 155 9 55 3 108 7 118 8 14 3 134
169 275 385 l15 22 -73 -2 c-39 -2 -72 -4 -73 -5z"/>
<path d="M6636 2383 c-1 -1 -44 -5 -96 -8 -159 -11 -202 -14 -275 -19 -38 -3
-113 -8 -165 -11 -52 -4 -122 -8 -155 -10 -33 -2 -94 -7 -135 -10 -75 -6 -100
-7 -305 -21 -60 -4 -126 -8 -145 -9 -19 -2 -84 -6 -145 -10 -60 -4 -115 -10
-122 -14 -11 -6 -273 -388 -273 -398 0 -3 107 3 225 12 72 5 171 12 305 20 41
3 105 7 142 10 37 3 104 8 150 10 46 3 108 7 138 9 30 3 100 8 155 11 55 4
123 9 150 11 223 16 301 21 362 23 27 1 37 10 72 61 23 33 41 64 41 69 0 5 4
11 9 13 7 2 133 187 175 255 5 10 -6 12 -49 10 -31 -1 -57 -3 -59 -4z"/>
</g>
</svg>
