<svg width="311" height="287" viewBox="0 0 311 287" fill="none" xmlns="http://www.w3.org/2000/svg">
<path d="M32.625 63.3731C32.625 87.0391 50.992 106.482 74.219 108.23C66.837 94.9281 62.625 79.6341 62.625 63.3731C62.625 47.1121 66.837 31.8171 74.219 18.5161C50.992 20.2641 32.625 39.7071 32.625 63.3731Z" fill="#2A354F"/>
<path d="M0 215.996C0 224.28 6.716 230.996 15 230.996H16.025C27.627 190.767 56.217 157.674 93.489 140.012C88.319 138.935 83.007 138.373 77.622 138.373C34.821 138.373 0 173.194 0 215.996Z" fill="#2A354F"/>
<path d="M278.125 63.3731C278.125 39.7071 259.758 20.2641 236.531 18.5161C243.913 31.8181 248.125 47.1121 248.125 63.3731C248.125 79.6341 243.913 94.9291 236.531 108.23C259.758 106.482 278.125 87.0391 278.125 63.3731Z" fill="#2A354F"/>
<path d="M295.747 230.996C304.031 230.996 310.747 224.28 310.747 215.996C310.747 173.194 275.926 138.373 233.125 138.373C227.74 138.373 222.428 138.934 217.258 140.012C254.529 157.674 283.12 190.768 294.722 230.996H295.747Z" fill="#2A354F"/>
<path d="M155.375 126.123C176.468 126.123 195.149 115.65 206.532 99.644C213.821 89.394 218.126 76.88 218.126 63.373C218.126 49.866 213.821 37.352 206.532 27.102C195.149 11.096 176.468 0.623047 155.375 0.623047C120.774 0.623047 92.625 28.772 92.625 63.373C92.625 97.974 120.774 126.123 155.375 126.123Z" fill="#2A354F"/>
<path d="M270.375 271.123C270.375 257.016 267.815 243.496 263.146 230.996C249.689 194.971 218.661 167.447 180.54 158.904C172.438 157.088 164.018 156.123 155.375 156.123C91.964 156.123 40.375 207.712 40.375 271.123C40.375 279.407 47.091 286.123 55.375 286.123H255.375C263.659 286.123 270.375 279.407 270.375 271.123Z" fill="#2A354F"/>
</svg>
