<svg width="110" height="35" viewBox="0 0 110 35" fill="none" xmlns="http://www.w3.org/2000/svg">
<path d="M10.695 5.12H3.68V9.95H9.43V11.56H3.68V18H1.84V3.51H10.695V5.12ZM21.39 18L17.94 12.02H15.18V18H13.34V3.51H18.745C19.941 3.51 20.9683 3.93167 21.827 4.775C22.6857 5.61833 23.115 6.615 23.115 7.765C23.115 8.39367 23 8.96867 22.77 9.49C22.5553 9.996 22.2947 10.3947 21.988 10.686C21.6813 10.962 21.367 11.1997 21.045 11.399C20.7383 11.5983 20.47 11.7287 20.24 11.79L19.918 11.905L23.46 18H21.39ZM15.18 5.12V10.41H18.745C19.435 10.41 20.0253 10.157 20.516 9.651C21.022 9.12967 21.275 8.501 21.275 7.765C21.275 7.029 21.022 6.408 20.516 5.902C20.0253 5.38067 19.435 5.12 18.745 5.12H15.18ZM27.9378 16.39H35.5278V18H26.0978V3.51H35.2978V5.12H27.9378V9.72H34.7228V11.33H27.9378V16.39ZM40.3587 16.39H47.9487V18H38.5187V3.51H47.7187V5.12H40.3587V9.72H47.1437V11.33H40.3587V16.39Z" fill="#FA5745"/>
<path d="M52.7796 3.51V18H50.9396V3.51H52.7796ZM58.8746 18L52.7796 10.64L58.4146 3.51H60.5996L54.8496 10.64L61.0596 18H58.8746ZM71.6315 18L70.2515 14.435H64.2715L62.8915 18H60.9365L66.4565 3.51H68.0665L73.5865 18H71.6315ZM67.2615 6.5L64.8465 12.825H69.6765L67.2615 6.5ZM74.617 7.305C74.617 6.293 75.0694 5.38833 75.974 4.591C76.8787 3.79367 77.998 3.395 79.332 3.395C80.5894 3.395 81.6474 3.82433 82.506 4.683C83.38 5.52633 83.817 6.55367 83.817 7.765H81.977C81.977 6.96767 81.724 6.30833 81.218 5.787C80.712 5.26567 80.0834 5.005 79.332 5.005C78.504 5.005 77.814 5.24267 77.262 5.718C76.7254 6.178 76.457 6.707 76.457 7.305C76.457 7.949 76.7177 8.47033 77.239 8.869C77.7757 9.26767 78.4197 9.582 79.171 9.812C79.9224 10.0267 80.6737 10.272 81.425 10.548C82.1917 10.824 82.8357 11.2687 83.357 11.882C83.8937 12.48 84.162 13.2543 84.162 14.205C84.162 15.2783 83.7174 16.1983 82.828 16.965C81.9387 17.7317 80.7734 18.115 79.332 18.115C77.86 18.115 76.687 17.7087 75.813 16.896C74.939 16.0833 74.502 15.033 74.502 13.745H76.342C76.342 14.619 76.595 15.3013 77.101 15.792C77.6224 16.2673 78.366 16.505 79.332 16.505C80.2674 16.505 80.9957 16.2903 81.517 15.861C82.0537 15.4163 82.322 14.8643 82.322 14.205C82.322 13.561 82.0537 13.0397 81.517 12.641C80.9957 12.2423 80.3594 11.9357 79.608 11.721C78.8567 11.491 78.0977 11.238 77.331 10.962C76.5797 10.686 75.9357 10.249 75.399 9.651C74.8777 9.03767 74.617 8.25567 74.617 7.305ZM86.0047 7.305C86.0047 6.293 86.4571 5.38833 87.3617 4.591C88.2664 3.79367 89.3857 3.395 90.7197 3.395C91.9771 3.395 93.0351 3.82433 93.8937 4.683C94.7677 5.52633 95.2047 6.55367 95.2047 7.765H93.3647C93.3647 6.96767 93.1117 6.30833 92.6057 5.787C92.0997 5.26567 91.4711 5.005 90.7197 5.005C89.8917 5.005 89.2017 5.24267 88.6497 5.718C88.1131 6.178 87.8447 6.707 87.8447 7.305C87.8447 7.949 88.1054 8.47033 88.6267 8.869C89.1634 9.26767 89.8074 9.582 90.5587 9.812C91.3101 10.0267 92.0614 10.272 92.8127 10.548C93.5794 10.824 94.2234 11.2687 94.7447 11.882C95.2814 12.48 95.5497 13.2543 95.5497 14.205C95.5497 15.2783 95.1051 16.1983 94.2157 16.965C93.3264 17.7317 92.1611 18.115 90.7197 18.115C89.2477 18.115 88.0747 17.7087 87.2007 16.896C86.3267 16.0833 85.8897 15.033 85.8897 13.745H87.7297C87.7297 14.619 87.9827 15.3013 88.4887 15.792C89.0101 16.2673 89.7537 16.505 90.7197 16.505C91.6551 16.505 92.3834 16.2903 92.9047 15.861C93.4414 15.4163 93.7097 14.8643 93.7097 14.205C93.7097 13.561 93.4414 13.0397 92.9047 12.641C92.3834 12.2423 91.7471 11.9357 90.9957 11.721C90.2444 11.491 89.4854 11.238 88.7187 10.962C87.9674 10.686 87.3234 10.249 86.7867 9.651C86.2654 9.03767 86.0047 8.25567 86.0047 7.305ZM107.052 18L105.672 14.435H99.6924L98.3124 18H96.3574L101.877 3.51H103.487L109.007 18H107.052ZM102.682 6.5L100.267 12.825H105.097L102.682 6.5Z" fill="#232323"/>
<path d="M2.394 25.24C2.01133 25.66 1.82 26.1967 1.82 26.85C1.82 27.5033 2.01133 28.04 2.394 28.46C2.77667 28.88 3.23867 29.09 3.78 29.09C4.32133 29.09 4.78333 28.88 5.166 28.46C5.54867 28.04 5.74 27.5033 5.74 26.85C5.74 26.1967 5.54867 25.66 5.166 25.24C4.78333 24.82 4.32133 24.61 3.78 24.61C3.23867 24.61 2.77667 24.82 2.394 25.24ZM1.68 23.7L1.96 24.4C2.00667 24.344 2.07667 24.274 2.17 24.19C2.26333 24.106 2.47333 23.994 2.8 23.854C3.12667 23.7047 3.47667 23.63 3.85 23.63C4.67133 23.63 5.36667 23.9333 5.936 24.54C6.50533 25.1467 6.79 25.9167 6.79 26.85C6.79 27.7833 6.50533 28.5533 5.936 29.16C5.36667 29.7667 4.67133 30.07 3.85 30.07C3.47667 30.07 3.13133 30 2.814 29.86C2.506 29.72 2.28667 29.58 2.156 29.44L1.96 29.23V32.24H0.91V23.7H1.68ZM10.5634 23.63C11.2541 23.63 11.8234 23.84 12.2714 24.26C12.7194 24.68 12.9434 25.1933 12.9434 25.8V30H12.1734L11.8934 29.3C11.8468 29.356 11.7768 29.426 11.6834 29.51C11.5901 29.594 11.3801 29.7107 11.0534 29.86C10.7268 30 10.3768 30.07 10.0034 30.07C9.38744 30.07 8.88344 29.888 8.49144 29.524C8.09944 29.16 7.90344 28.712 7.90344 28.18C7.90344 27.5267 8.19744 27.0273 8.78544 26.682C9.37344 26.3273 10.4094 26.15 11.8934 26.15V25.8C11.8934 25.4827 11.7628 25.2073 11.5014 24.974C11.2494 24.7313 10.9368 24.61 10.5634 24.61C9.87277 24.61 9.45277 24.9133 9.30344 25.52H8.18344C8.2581 24.9693 8.50544 24.5167 8.92544 24.162C9.34544 23.8073 9.89144 23.63 10.5634 23.63ZM10.0034 29.09C10.5354 29.09 10.9834 28.9407 11.3474 28.642C11.7114 28.334 11.8934 27.9933 11.8934 27.62V27.13C10.7174 27.13 9.93344 27.2187 9.54144 27.396C9.14944 27.5733 8.95344 27.858 8.95344 28.25C8.95344 28.474 9.05144 28.67 9.24744 28.838C9.44344 29.006 9.69544 29.09 10.0034 29.09ZM16.3713 29.86L13.9213 23.7H15.0413L16.9313 28.53L18.8213 23.7H19.9413L17.2113 30.56C16.9593 31.1947 16.6933 31.6427 16.4133 31.904C16.1426 32.1747 15.8019 32.31 15.3913 32.31L14.9713 32.24V31.4C15.2699 31.4 15.4986 31.3347 15.6573 31.204C15.8253 31.0733 15.9699 30.8587 16.0913 30.56L16.3713 29.86ZM27.224 23.63C27.8027 23.63 28.2973 23.868 28.708 24.344C29.1187 24.82 29.324 25.4453 29.324 26.22V30H28.274V26.22C28.274 25.716 28.1527 25.324 27.91 25.044C27.6767 24.7547 27.378 24.61 27.014 24.61C26.65 24.61 26.3373 24.7593 26.076 25.058C25.8147 25.3567 25.684 25.744 25.684 26.22V30H24.634V26.22C24.634 25.716 24.5127 25.324 24.27 25.044C24.0367 24.7547 23.738 24.61 23.374 24.61C23.0193 24.61 22.7067 24.764 22.436 25.072C22.1747 25.38 22.044 25.7627 22.044 26.22V30H20.994V23.7H21.764L22.044 24.4C22.0533 24.3813 22.072 24.3533 22.1 24.316C22.128 24.2787 22.1887 24.218 22.282 24.134C22.3753 24.0407 22.478 23.9613 22.59 23.896C22.702 23.8307 22.8467 23.77 23.024 23.714C23.2013 23.658 23.388 23.63 23.584 23.63C23.9573 23.63 24.2887 23.7233 24.578 23.91C24.8673 24.0967 25.068 24.2833 25.18 24.47L25.334 24.75C25.3527 24.722 25.376 24.6847 25.404 24.638C25.432 24.582 25.502 24.4887 25.614 24.358C25.726 24.2273 25.8473 24.1153 25.978 24.022C26.118 23.9193 26.2953 23.8307 26.51 23.756C26.734 23.672 26.972 23.63 27.224 23.63ZM35.0602 28.32H36.1802C35.9468 28.824 35.6108 29.244 35.1722 29.58C34.7335 29.9067 34.2062 30.07 33.5902 30.07C32.7688 30.07 32.0735 29.7667 31.5042 29.16C30.9348 28.5533 30.6502 27.7833 30.6502 26.85C30.6502 25.926 30.9302 25.1607 31.4902 24.554C32.0595 23.938 32.7362 23.63 33.5202 23.63C34.3042 23.63 34.9668 23.924 35.5082 24.512C36.0495 25.1 36.3202 25.856 36.3202 26.78L36.2502 27.34H31.7702C31.8075 27.7973 32.0082 28.2033 32.3722 28.558C32.7362 28.9127 33.1422 29.09 33.5902 29.09C34.1875 29.09 34.6775 28.8333 35.0602 28.32ZM33.5202 24.61C33.1002 24.61 32.7175 24.7827 32.3722 25.128C32.0362 25.4733 31.8355 25.9073 31.7702 26.43H35.2002C35.1348 25.8793 34.9435 25.4407 34.6262 25.114C34.3182 24.778 33.9495 24.61 33.5202 24.61ZM40.5847 23.63C41.266 23.63 41.8447 23.8867 42.3207 24.4C42.7967 24.9133 43.0347 25.5667 43.0347 26.36V30H41.9847V26.36C41.9847 25.8467 41.8354 25.4267 41.5367 25.1C41.238 24.7733 40.874 24.61 40.4447 24.61C39.95 24.61 39.544 24.7733 39.2267 25.1C38.9187 25.4173 38.7647 25.8373 38.7647 26.36V30H37.7147V23.7H38.4847L38.7647 24.4C38.8114 24.344 38.8814 24.274 38.9747 24.19C39.068 24.106 39.2687 23.994 39.5767 23.854C39.894 23.7047 40.23 23.63 40.5847 23.63ZM45.413 22.93V22.02H46.323V23.7H47.723V24.68H46.323V27.97C46.323 28.3153 46.4164 28.5907 46.603 28.796C46.799 28.992 47.0557 29.09 47.373 29.09L47.723 29.02V29.93C47.583 30.0233 47.373 30.07 47.093 30.07C46.589 30.07 46.1597 29.874 45.805 29.482C45.4504 29.09 45.273 28.586 45.273 27.97V24.68H44.153V23.7H44.643C45.1564 23.7 45.413 23.4433 45.413 22.93ZM56.4052 28.18C56.4052 28.7213 56.2046 29.174 55.8032 29.538C55.4112 29.8927 54.8886 30.07 54.2352 30.07C53.5539 30.07 53.0079 29.888 52.5972 29.524C52.1866 29.16 51.9626 28.6887 51.9252 28.11H52.9752C53.0126 28.3993 53.1386 28.6373 53.3532 28.824C53.5679 29.0013 53.8619 29.09 54.2352 29.09C54.5712 29.09 54.8419 29.0013 55.0472 28.824C55.2526 28.6467 55.3552 28.432 55.3552 28.18C55.3552 27.928 55.2432 27.7367 55.0192 27.606C54.7952 27.466 54.5199 27.3633 54.1932 27.298C53.8759 27.2233 53.5539 27.1393 53.2272 27.046C52.9006 26.9527 52.6252 26.7753 52.4012 26.514C52.1772 26.2433 52.0652 25.8887 52.0652 25.45C52.0652 24.946 52.2612 24.5167 52.6532 24.162C53.0452 23.8073 53.5492 23.63 54.1652 23.63C54.8186 23.63 55.3319 23.8027 55.7052 24.148C56.0879 24.4933 56.2979 24.9507 56.3352 25.52H55.2852C55.2106 24.9133 54.8372 24.61 54.1652 24.61C53.8666 24.61 53.6146 24.694 53.4092 24.862C53.2132 25.03 53.1152 25.226 53.1152 25.45C53.1152 25.702 53.2272 25.898 53.4512 26.038C53.6752 26.1687 53.9459 26.2713 54.2632 26.346C54.5899 26.4113 54.9166 26.4907 55.2432 26.584C55.5699 26.6773 55.8452 26.8593 56.0692 27.13C56.2932 27.3913 56.4052 27.7413 56.4052 28.18ZM59.4787 29.86L57.0287 23.7H58.1487L60.0387 28.53L61.9287 23.7H63.0487L60.3187 30.56C60.0667 31.1947 59.8007 31.6427 59.5207 31.904C59.25 32.1747 58.9093 32.31 58.4987 32.31L58.0787 32.24V31.4C58.3773 31.4 58.606 31.3347 58.7647 31.204C58.9327 31.0733 59.0773 30.8587 59.1987 30.56L59.4787 29.86ZM68.2314 28.18C68.2314 28.7213 68.0307 29.174 67.6294 29.538C67.2374 29.8927 66.7147 30.07 66.0614 30.07C65.3801 30.07 64.8341 29.888 64.4234 29.524C64.0127 29.16 63.7887 28.6887 63.7514 28.11H64.8014C64.8387 28.3993 64.9647 28.6373 65.1794 28.824C65.3941 29.0013 65.6881 29.09 66.0614 29.09C66.3974 29.09 66.6681 29.0013 66.8734 28.824C67.0787 28.6467 67.1814 28.432 67.1814 28.18C67.1814 27.928 67.0694 27.7367 66.8454 27.606C66.6214 27.466 66.3461 27.3633 66.0194 27.298C65.7021 27.2233 65.3801 27.1393 65.0534 27.046C64.7267 26.9527 64.4514 26.7753 64.2274 26.514C64.0034 26.2433 63.8914 25.8887 63.8914 25.45C63.8914 24.946 64.0874 24.5167 64.4794 24.162C64.8714 23.8073 65.3754 23.63 65.9914 23.63C66.6447 23.63 67.1581 23.8027 67.5314 24.148C67.9141 24.4933 68.1241 24.9507 68.1614 25.52H67.1114C67.0367 24.9133 66.6634 24.61 65.9914 24.61C65.6927 24.61 65.4407 24.694 65.2354 24.862C65.0394 25.03 64.9414 25.226 64.9414 25.45C64.9414 25.702 65.0534 25.898 65.2774 26.038C65.5014 26.1687 65.7721 26.2713 66.0894 26.346C66.4161 26.4113 66.7427 26.4907 67.0694 26.584C67.3961 26.6773 67.6714 26.8593 67.8954 27.13C68.1194 27.3913 68.2314 27.7413 68.2314 28.18ZM70.2548 22.93V22.02H71.1648V23.7H72.5648V24.68H71.1648V27.97C71.1648 28.3153 71.2582 28.5907 71.4448 28.796C71.6408 28.992 71.8975 29.09 72.2148 29.09L72.5648 29.02V29.93C72.4248 30.0233 72.2148 30.07 71.9348 30.07C71.4308 30.07 71.0015 29.874 70.6468 29.482C70.2922 29.09 70.1148 28.586 70.1148 27.97V24.68H68.9948V23.7H69.4848C69.9982 23.7 70.2548 23.4433 70.2548 22.93ZM77.9625 28.32H79.0825C78.8492 28.824 78.5132 29.244 78.0745 29.58C77.6358 29.9067 77.1085 30.07 76.4925 30.07C75.6712 30.07 74.9758 29.7667 74.4065 29.16C73.8372 28.5533 73.5525 27.7833 73.5525 26.85C73.5525 25.926 73.8325 25.1607 74.3925 24.554C74.9618 23.938 75.6385 23.63 76.4225 23.63C77.2065 23.63 77.8692 23.924 78.4105 24.512C78.9518 25.1 79.2225 25.856 79.2225 26.78L79.1525 27.34H74.6725C74.7098 27.7973 74.9105 28.2033 75.2745 28.558C75.6385 28.9127 76.0445 29.09 76.4925 29.09C77.0898 29.09 77.5798 28.8333 77.9625 28.32ZM76.4225 24.61C76.0025 24.61 75.6198 24.7827 75.2745 25.128C74.9385 25.4733 74.7378 25.9073 74.6725 26.43H78.1025C78.0372 25.8793 77.8458 25.4407 77.5285 25.114C77.2205 24.778 76.8518 24.61 76.4225 24.61ZM86.847 23.63C87.4257 23.63 87.9204 23.868 88.331 24.344C88.7417 24.82 88.947 25.4453 88.947 26.22V30H87.897V26.22C87.897 25.716 87.7757 25.324 87.533 25.044C87.2997 24.7547 87.001 24.61 86.637 24.61C86.273 24.61 85.9604 24.7593 85.699 25.058C85.4377 25.3567 85.307 25.744 85.307 26.22V30H84.257V26.22C84.257 25.716 84.1357 25.324 83.893 25.044C83.6597 24.7547 83.361 24.61 82.997 24.61C82.6424 24.61 82.3297 24.764 82.059 25.072C81.7977 25.38 81.667 25.7627 81.667 26.22V30H80.617V23.7H81.387L81.667 24.4C81.6764 24.3813 81.695 24.3533 81.723 24.316C81.751 24.2787 81.8117 24.218 81.905 24.134C81.9984 24.0407 82.101 23.9613 82.213 23.896C82.325 23.8307 82.4697 23.77 82.647 23.714C82.8244 23.658 83.011 23.63 83.207 23.63C83.5804 23.63 83.9117 23.7233 84.201 23.91C84.4904 24.0967 84.691 24.2833 84.803 24.47L84.957 24.75C84.9757 24.722 84.999 24.6847 85.027 24.638C85.055 24.582 85.125 24.4887 85.237 24.358C85.349 24.2273 85.4704 24.1153 85.601 24.022C85.741 23.9193 85.9184 23.8307 86.133 23.756C86.357 23.672 86.595 23.63 86.847 23.63Z" fill="#888888"/>
</svg>
