<svg width="21" height="19" viewBox="0 0 21 19" fill="none" xmlns="http://www.w3.org/2000/svg">
<g clip-path="url(#clip0_414_26)">
<path d="M8.167 18.8001C8.31146 18.8001 8.45449 18.7716 8.58795 18.7164C8.72141 18.6611 8.84267 18.5801 8.94482 18.4779C9.04696 18.3758 9.12799 18.2545 9.18327 18.121C9.23855 17.9876 9.267 17.8446 9.267 17.7001C9.267 17.5556 9.23855 17.4126 9.18327 17.2791C9.12799 17.1457 9.04696 17.0244 8.94482 16.9223C8.84267 16.8201 8.72141 16.7391 8.58795 16.6838C8.45449 16.6286 8.31146 16.6001 8.167 16.6001C7.87526 16.6001 7.59547 16.716 7.38918 16.9223C7.18289 17.1286 7.067 17.4084 7.067 17.7001C7.067 17.9918 7.18289 18.2716 7.38918 18.4779C7.59547 18.6842 7.87526 18.8001 8.167 18.8001ZM16.233 18.8001C16.3775 18.8001 16.5205 18.7716 16.654 18.7164C16.7874 18.6611 16.9087 18.5801 17.0108 18.4779C17.113 18.3758 17.194 18.2545 17.2493 18.121C17.3045 17.9876 17.333 17.8446 17.333 17.7001C17.333 17.5556 17.3045 17.4126 17.2493 17.2791C17.194 17.1457 17.113 17.0244 17.0108 16.9223C16.9087 16.8201 16.7874 16.7391 16.654 16.6838C16.5205 16.6286 16.3775 16.6001 16.233 16.6001C15.9413 16.6001 15.6615 16.716 15.4552 16.9223C15.2489 17.1286 15.133 17.4084 15.133 17.7001C15.133 17.9918 15.2489 18.2716 15.4552 18.4779C15.6615 18.6842 15.9413 18.8001 16.233 18.8001Z" fill="white"/>
<path fill-rule="evenodd" clip-rule="evenodd" d="M0.459957 1.19541C0.766309 0.735877 1.38718 0.611704 1.84671 0.918056L5.97171 3.66806C6.18489 3.81018 6.33538 4.0287 6.39215 4.27854L8.50628 13.5831H16.1268L16.6169 11.9171H10.458C9.90572 11.9171 9.45801 11.4694 9.45801 10.9171C9.45801 10.3648 9.90572 9.91711 10.458 9.91711H17.2053L17.8304 7.79211H10.458C9.90572 7.79211 9.45801 7.34439 9.45801 6.79211C9.45801 6.23982 9.90572 5.79211 10.458 5.79211H19.167C19.4822 5.79211 19.7789 5.94068 19.9677 6.19303C20.1565 6.44539 20.2153 6.77198 20.1264 7.07433L17.8344 14.8653C17.7092 15.2909 17.3186 15.5831 16.875 15.5831H7.70801C7.24109 15.5831 6.83632 15.26 6.73286 14.8047L4.53028 5.1108L0.737307 2.58216C0.277778 2.2758 0.153604 1.65493 0.459957 1.19541Z" fill="white"/>
</g>
<defs>
<clipPath id="clip0_414_26">
<rect width="21" height="19" fill="white"/>
</clipPath>
</defs>
</svg>
