<svg width="20" height="20" viewBox="0 0 20 20" fill="none" xmlns="http://www.w3.org/2000/svg">
<g clip-path="url(#clip0_8704_8)">
<path fill-rule="evenodd" clip-rule="evenodd" d="M2.75 4.16699C2.75 3.61471 3.19772 3.16699 3.75 3.16699H16.25C16.8023 3.16699 17.25 3.61471 17.25 4.16699V18.3336C17.25 18.8859 16.8023 19.3336 16.25 19.3336H3.75C3.19772 19.3336 2.75 18.8859 2.75 18.3336V4.16699ZM4.75 5.16699V17.3336H15.25V5.16699H4.75Z" fill="#FF4F4F"/>
<path fill-rule="evenodd" clip-rule="evenodd" d="M8.33594 7.3335C8.88822 7.3335 9.33594 7.78121 9.33594 8.3335V13.7502C9.33594 14.3025 8.88822 14.7502 8.33594 14.7502C7.78365 14.7502 7.33594 14.3025 7.33594 13.7502V8.3335C7.33594 7.78121 7.78365 7.3335 8.33594 7.3335Z" fill="#FF4F4F"/>
<path fill-rule="evenodd" clip-rule="evenodd" d="M11.6641 7.3335C12.2163 7.3335 12.6641 7.78121 12.6641 8.3335V13.7502C12.6641 14.3025 12.2163 14.7502 11.6641 14.7502C11.1118 14.7502 10.6641 14.3025 10.6641 13.7502V8.3335C10.6641 7.78121 11.1118 7.3335 11.6641 7.3335Z" fill="#FF4F4F"/>
<path fill-rule="evenodd" clip-rule="evenodd" d="M0.664062 4.16699C0.664062 3.61471 1.11178 3.16699 1.66406 3.16699H18.3307C18.883 3.16699 19.3307 3.61471 19.3307 4.16699C19.3307 4.71928 18.883 5.16699 18.3307 5.16699H1.66406C1.11178 5.16699 0.664062 4.71928 0.664062 4.16699Z" fill="#FF4F4F"/>
<path fill-rule="evenodd" clip-rule="evenodd" d="M7.15759 1.18631C7.33313 0.86607 7.66929 0.666992 8.03448 0.666992H11.9878C12.356 0.666992 12.6945 0.869377 12.8687 1.19378L14.2116 3.69378C14.3781 4.00369 14.3695 4.37828 14.1889 4.68021C14.0084 4.98214 13.6825 5.16699 13.3307 5.16699H6.66406C6.31075 5.16699 5.98367 4.98056 5.80363 4.67656C5.6236 4.37256 5.61734 3.99612 5.78717 3.68631L7.15759 1.18631ZM8.6267 2.66699L8.35262 3.16699H11.6584L11.3898 2.66699H8.6267Z" fill="#FF4F4F"/>
</g>
<defs>
<clipPath id="clip0_8704_8">
<rect width="20" height="20" fill="white"/>
</clipPath>
</defs>
</svg>
